<mxfile host="app.diagrams.net" modified="2023-06-20T11:05:48.125Z" agent="Mozilla/5.0 (Macintosh; Intel Mac OS X 10_15_7) AppleWebKit/537.36 (KHTML, like Gecko) Chrome/114.0.0.0 Safari/537.36" etag="8fGBbKRYa-x9K-wWSzPF" version="21.3.2" type="github">
  <diagram name="第 1 页" id="B6P0FEtfsNViP6RiIy6Y">
    <mxGraphModel dx="2874" dy="1074" grid="0" gridSize="10" guides="1" tooltips="1" connect="1" arrows="1" fold="1" page="0" pageScale="1" pageWidth="827" pageHeight="1169" math="0" shadow="0">
      <root>
        <mxCell id="0" />
        <mxCell id="1" parent="0" />
        <mxCell id="jt_fw9Rw_P_MPbaHYzuL-2" value="" style="rounded=0;whiteSpace=wrap;html=1;" vertex="1" parent="1">
          <mxGeometry x="-360.5" y="33" width="550" height="440" as="geometry" />
        </mxCell>
        <mxCell id="jt_fw9Rw_P_MPbaHYzuL-17" style="edgeStyle=orthogonalEdgeStyle;rounded=0;orthogonalLoop=1;jettySize=auto;html=1;exitX=1;exitY=0.5;exitDx=0;exitDy=0;entryX=0;entryY=0.5;entryDx=0;entryDy=0;" edge="1" parent="1" source="jt_fw9Rw_P_MPbaHYzuL-5" target="jt_fw9Rw_P_MPbaHYzuL-16">
          <mxGeometry relative="1" as="geometry" />
        </mxCell>
        <mxCell id="jt_fw9Rw_P_MPbaHYzuL-5" value="用户反馈" style="ellipse;whiteSpace=wrap;html=1;fillColor=#ffe6cc;strokeColor=#d79b00;" vertex="1" parent="1">
          <mxGeometry x="-506.75" y="183" width="90" height="60" as="geometry" />
        </mxCell>
        <mxCell id="jt_fw9Rw_P_MPbaHYzuL-12" style="edgeStyle=orthogonalEdgeStyle;rounded=0;orthogonalLoop=1;jettySize=auto;html=1;exitX=1;exitY=0.5;exitDx=0;exitDy=0;entryX=0;entryY=0.5;entryDx=0;entryDy=0;" edge="1" parent="1" source="jt_fw9Rw_P_MPbaHYzuL-7" target="jt_fw9Rw_P_MPbaHYzuL-8">
          <mxGeometry relative="1" as="geometry" />
        </mxCell>
        <mxCell id="jt_fw9Rw_P_MPbaHYzuL-7" value="ALog平台所有日志场景信息" style="ellipse;whiteSpace=wrap;html=1;fillColor=#dae8fc;strokeColor=#6c8ebf;" vertex="1" parent="1">
          <mxGeometry x="-522" y="61" width="110.5" height="74" as="geometry" />
        </mxCell>
        <mxCell id="jt_fw9Rw_P_MPbaHYzuL-13" style="edgeStyle=orthogonalEdgeStyle;rounded=0;orthogonalLoop=1;jettySize=auto;html=1;exitX=1;exitY=0.5;exitDx=0;exitDy=0;entryX=0;entryY=0.5;entryDx=0;entryDy=0;" edge="1" parent="1" source="jt_fw9Rw_P_MPbaHYzuL-8" target="jt_fw9Rw_P_MPbaHYzuL-9">
          <mxGeometry relative="1" as="geometry" />
        </mxCell>
        <mxCell id="jt_fw9Rw_P_MPbaHYzuL-8" value="文本上传&amp;amp;数据清洗" style="rounded=0;whiteSpace=wrap;html=1;fillColor=#f5f5f5;fontColor=#333333;strokeColor=#666666;" vertex="1" parent="1">
          <mxGeometry x="-326.5" y="68" width="120" height="60" as="geometry" />
        </mxCell>
        <mxCell id="jt_fw9Rw_P_MPbaHYzuL-14" style="edgeStyle=orthogonalEdgeStyle;rounded=0;orthogonalLoop=1;jettySize=auto;html=1;exitX=1;exitY=0.5;exitDx=0;exitDy=0;entryX=0;entryY=0.5;entryDx=0;entryDy=0;" edge="1" parent="1" source="jt_fw9Rw_P_MPbaHYzuL-9" target="jt_fw9Rw_P_MPbaHYzuL-10">
          <mxGeometry relative="1" as="geometry" />
        </mxCell>
        <mxCell id="jt_fw9Rw_P_MPbaHYzuL-9" value="文本切块" style="rounded=0;whiteSpace=wrap;html=1;fillColor=#f5f5f5;fontColor=#333333;strokeColor=#666666;" vertex="1" parent="1">
          <mxGeometry x="-160.5" y="68" width="120" height="60" as="geometry" />
        </mxCell>
        <mxCell id="jt_fw9Rw_P_MPbaHYzuL-15" style="edgeStyle=orthogonalEdgeStyle;rounded=0;orthogonalLoop=1;jettySize=auto;html=1;exitX=0.5;exitY=1;exitDx=0;exitDy=0;entryX=0.5;entryY=0;entryDx=0;entryDy=0;" edge="1" parent="1" source="jt_fw9Rw_P_MPbaHYzuL-10" target="jt_fw9Rw_P_MPbaHYzuL-11">
          <mxGeometry relative="1" as="geometry" />
        </mxCell>
        <mxCell id="jt_fw9Rw_P_MPbaHYzuL-10" value="文本向量化&amp;amp;embedding" style="rounded=0;whiteSpace=wrap;html=1;fillColor=#f5f5f5;fontColor=#333333;strokeColor=#666666;" vertex="1" parent="1">
          <mxGeometry x="9.5" y="68" width="150" height="60" as="geometry" />
        </mxCell>
        <mxCell id="jt_fw9Rw_P_MPbaHYzuL-11" value="向量持久化" style="rounded=0;whiteSpace=wrap;html=1;fillColor=#f5f5f5;fontColor=#333333;strokeColor=#666666;" vertex="1" parent="1">
          <mxGeometry x="24.5" y="183" width="120" height="60" as="geometry" />
        </mxCell>
        <mxCell id="jt_fw9Rw_P_MPbaHYzuL-19" style="edgeStyle=orthogonalEdgeStyle;rounded=0;orthogonalLoop=1;jettySize=auto;html=1;exitX=1;exitY=0.5;exitDx=0;exitDy=0;entryX=0;entryY=0.5;entryDx=0;entryDy=0;" edge="1" parent="1" source="jt_fw9Rw_P_MPbaHYzuL-16" target="jt_fw9Rw_P_MPbaHYzuL-18">
          <mxGeometry relative="1" as="geometry" />
        </mxCell>
        <mxCell id="jt_fw9Rw_P_MPbaHYzuL-16" value="问题向量化&amp;amp;embedding" style="rounded=0;whiteSpace=wrap;html=1;fillColor=#e1d5e7;strokeColor=#9673a6;" vertex="1" parent="1">
          <mxGeometry x="-326.5" y="188" width="146" height="50" as="geometry" />
        </mxCell>
        <mxCell id="jt_fw9Rw_P_MPbaHYzuL-20" style="edgeStyle=orthogonalEdgeStyle;rounded=0;orthogonalLoop=1;jettySize=auto;html=1;exitX=1;exitY=0.5;exitDx=0;exitDy=0;entryX=0;entryY=0.5;entryDx=0;entryDy=0;" edge="1" parent="1" source="jt_fw9Rw_P_MPbaHYzuL-18" target="jt_fw9Rw_P_MPbaHYzuL-11">
          <mxGeometry relative="1" as="geometry" />
        </mxCell>
        <mxCell id="jt_fw9Rw_P_MPbaHYzuL-23" style="edgeStyle=orthogonalEdgeStyle;rounded=0;orthogonalLoop=1;jettySize=auto;html=1;exitX=0.5;exitY=1;exitDx=0;exitDy=0;entryX=0.5;entryY=0;entryDx=0;entryDy=0;" edge="1" parent="1" source="jt_fw9Rw_P_MPbaHYzuL-18" target="jt_fw9Rw_P_MPbaHYzuL-21">
          <mxGeometry relative="1" as="geometry" />
        </mxCell>
        <mxCell id="jt_fw9Rw_P_MPbaHYzuL-18" value="向量检索" style="rounded=0;whiteSpace=wrap;html=1;fillColor=#e1d5e7;strokeColor=#9673a6;" vertex="1" parent="1">
          <mxGeometry x="-130.5" y="183" width="100" height="60" as="geometry" />
        </mxCell>
        <mxCell id="jt_fw9Rw_P_MPbaHYzuL-24" style="edgeStyle=orthogonalEdgeStyle;rounded=0;orthogonalLoop=1;jettySize=auto;html=1;exitX=0;exitY=0.5;exitDx=0;exitDy=0;entryX=1;entryY=0.5;entryDx=0;entryDy=0;" edge="1" parent="1" source="jt_fw9Rw_P_MPbaHYzuL-21" target="jt_fw9Rw_P_MPbaHYzuL-22">
          <mxGeometry relative="1" as="geometry" />
        </mxCell>
        <mxCell id="jt_fw9Rw_P_MPbaHYzuL-21" value="获取相关向量并格式化" style="rounded=0;whiteSpace=wrap;html=1;fillColor=#e1d5e7;strokeColor=#9673a6;" vertex="1" parent="1">
          <mxGeometry x="-145.5" y="283" width="130" height="60" as="geometry" />
        </mxCell>
        <mxCell id="jt_fw9Rw_P_MPbaHYzuL-27" style="edgeStyle=orthogonalEdgeStyle;rounded=0;orthogonalLoop=1;jettySize=auto;html=1;exitX=0.5;exitY=1;exitDx=0;exitDy=0;entryX=0.5;entryY=0;entryDx=0;entryDy=0;" edge="1" parent="1" source="jt_fw9Rw_P_MPbaHYzuL-22" target="jt_fw9Rw_P_MPbaHYzuL-26">
          <mxGeometry relative="1" as="geometry" />
        </mxCell>
        <mxCell id="jt_fw9Rw_P_MPbaHYzuL-22" value="组装Prompt" style="rounded=0;whiteSpace=wrap;html=1;fillColor=#e1d5e7;strokeColor=#9673a6;" vertex="1" parent="1">
          <mxGeometry x="-318.5" y="283" width="130" height="60" as="geometry" />
        </mxCell>
        <mxCell id="jt_fw9Rw_P_MPbaHYzuL-31" style="edgeStyle=orthogonalEdgeStyle;rounded=0;orthogonalLoop=1;jettySize=auto;html=1;exitX=0;exitY=0.5;exitDx=0;exitDy=0;entryX=0.923;entryY=0.513;entryDx=0;entryDy=0;entryPerimeter=0;" edge="1" parent="1" source="jt_fw9Rw_P_MPbaHYzuL-26" target="jt_fw9Rw_P_MPbaHYzuL-30">
          <mxGeometry relative="1" as="geometry" />
        </mxCell>
        <mxCell id="jt_fw9Rw_P_MPbaHYzuL-26" value="请求LLM" style="rounded=0;whiteSpace=wrap;html=1;fillColor=#f8cecc;strokeColor=#b85450;" vertex="1" parent="1">
          <mxGeometry x="-318.5" y="383" width="130" height="60" as="geometry" />
        </mxCell>
        <mxCell id="jt_fw9Rw_P_MPbaHYzuL-30" value="对应场景信息" style="shape=dataStorage;whiteSpace=wrap;html=1;fixedSize=1;size=10;fillColor=#d5e8d4;strokeColor=#82b366;" vertex="1" parent="1">
          <mxGeometry x="-513" y="372" width="110" height="80" as="geometry" />
        </mxCell>
      </root>
    </mxGraphModel>
  </diagram>
</mxfile>
